# MAPDEV.wad, map MAPDEV
# Created by Ultimate Doom Builder 3.0.0.4121

o MAPDEV
v 24 0 -16
v 24 67.2000026702881 -16
v 24 67.2000026702881 0
v 24 0 0
v -24 0 -16
v -24 67.2000026702881 -16
v -16 67.2000026702881 -16
v -16 0 -16
v -24 0 16
v -24 34.8000013828278 16
v -24 67.2000026702881 8
v -24 0 8
v 24 0 16
v 24 34.8000013828278 16
v -24 67.2000026702881 0
v -24 0 0
v 24 0 8
v 24 67.2000026702881 8
v 16 67.2000026702881 -16
v 16 0 -16
v 16 67.2000026702881 0
v 16 86.4000034332275 0
v 16 86.4000034332275 -16
v -16 67.2000026702881 0
v -16 86.4000034332275 0
v -16 86.4000034332275 -16
v -24 86.4000034332275 0
v 24 86.4000034332275 0
vn 1 0 0
vn 0 0 -1
vn -1 0 0
vn 0 0 1
vn 0 1 0
vn 0 0.284088329691374 0.958798112708387
vt 0.5384616 -1
vt 0.5384616 0
vt 0.4615385 0
vt 0.4615385 -1
vt 0.7692308 -1
vt 0.7692308 0
vt 0.7307692 0
vt 0.7307692 -1
vt 0.1538462 -1
vt 0.1538462 -0.4821429
vt 0.1153846 0
vt 0.1153846 -1
vt 0.3846154 -1
vt 0.3846154 -0.4821429
vt 0.07692308 0
vt 0.07692308 -1
vt 0.4230769 -1
vt 0.4230769 0
vt 0.5769231 0
vt 0.5769231 -1
vt 0 0
vt 0 -1
vt 0.875 -1
vt 0.875 0
vt 0.75 0
vt 0.75 -1
vt 1 -1
vt 1 0
vt 0.6875 0
vt 0.6875 -1
vt 0.4375 0
vt 0.4375 -1
vt 0.0625 -1
vt 0.0625 0
vt 0.3125 -1
vt 0.3125 0
vt 0.375 -1
vt 0.375 0
vt 0.7692308 -0.2857143
vt 0.9615385 -0.2857143
vt 0.9615385 0
vt 0.7692308 -0.4285715
vt 1 -0.4285715
vt 1 -0.2857143
vt 0.1538462 -0.4848485
vt 0.3846154 -0.4848485
vt 0.3846154 -6.45948E-16
vt 0.1538462 -6.45948E-16
usemtl textures/SpawnerMachineA.png
f 1/1/1 2/2/1 3/3/1 4/4/1
f 5/5/2 6/6/2 7/7/2 8/8/2
f 9/9/3 10/10/3 11/11/3 12/12/3
f 13/13/4 14/14/4 10/10/4 9/9/4
f 12/12/3 11/11/3 15/15/3 16/16/3
f 17/17/1 18/18/1 14/14/1 13/13/1
f 8/8/2 7/7/2 19/19/2 20/20/2
f 20/20/2 19/19/2 2/2/2 1/1/2
f 16/16/3 15/15/3 6/21/3 5/22/3
f 4/4/1 3/3/1 18/18/1 17/17/1
usemtl textures/SpawnerSign.png
f 21/23/3 22/24/3 23/25/3 19/26/3
f 24/23/3 25/24/3 26/25/3 7/26/3
f 7/27/1 26/28/1 25/24/1 24/23/1
f 15/26/2 27/25/2 25/29/2 24/30/2
f 24/30/2 25/29/2 22/31/2 21/32/2
f 24/33/4 25/34/4 27/21/4 15/22/4
f 21/35/4 22/36/4 25/34/4 24/33/4
f 3/37/4 28/38/4 22/36/4 21/35/4
f 21/32/2 22/31/2 28/38/2 3/37/2
f 19/27/1 23/28/1 22/24/1 21/23/1
usemtl textures/SpawnerMachineA.png
f 15/39/5 21/40/5 19/41/5
f 6/6/5 15/39/5 19/41/5
f 11/42/5 18/43/5 3/44/5
f 15/39/5 11/42/5 3/44/5
f 10/45/6 14/46/6 18/47/6
f 11/48/6 10/45/6 18/47/6
f 19/41/5 21/40/5 3/44/5
f 2/28/5 19/41/5 3/44/5
