# Blender 4.1.1
# www.blender.org
o MAP01
v -4.000003 32.000000 -16.000000
v 3.999997 32.000000 -16.000000
v 3.999999 0.000000 -16.000000
v -4.000000 -0.000000 -16.000000
v -4.000002 32.000000 16.000000
v -3.999999 -0.000000 16.000000
v 3.999998 32.000000 16.000000
v 4.000000 0.000000 16.000000
v 3.999997 32.000000 -12.000000
v 4.000000 0.000000 -12.000000
v 3.999998 32.000000 12.000000
v 4.000000 0.000000 12.000000
v 3.999999 4.000000 -12.000000
v 4.000000 4.000000 12.000000
v 3.999998 28.000002 12.000000
v 3.999997 28.000002 -12.000000
v 2.999998 28.000002 12.000000
v 3.000000 4.000000 12.000000
v 2.999997 28.000002 -12.000000
v 2.999999 4.000000 -12.000000
vn -0.0000 -0.0000 -1.0000
vn -1.0000 -0.0000 -0.0000
vn -0.0000 -0.0000 1.0000
vn 1.0000 -0.0000 -0.0000
vn -0.0000 1.0000 -0.0000
vn -0.0000 -1.0000 -0.0000
vt 0.083333 0.333333
vt 0.000000 0.333333
vt 0.000000 0.000000
vt 0.083333 0.000000
vt 0.333333 1.000000
vt 0.000000 1.000000
vt 0.000000 0.666667
vt 0.333333 0.666667
vt 0.000000 0.000000
vt 0.083333 0.000000
vt 0.666667 1.000000
vt 0.625000 1.000000
vt 0.625000 0.666667
vt 0.666667 0.666667
vt 0.375000 1.000000
vt 0.375000 0.666667
vt 0.625000 0.708333
vt 0.375000 0.708333
vt 0.375000 0.958333
vt 0.625000 0.958333
vt 0.515625 0.416667
vt 0.505208 0.416667
vt 0.505208 0.166667
vt 0.515625 0.166667
vt 0.250000 0.666667
vt 0.000000 0.416667
vt 0.250000 0.416667
vt 0.515625 0.416667
vt 0.505208 0.416667
vt 0.505208 0.166667
vt 0.515625 0.166667
vt 0.958333 0.916667
vt 1.000000 0.916667
vt 1.000000 1.000000
vt 0.666667 0.916667
vt 0.708333 0.916667
vt 0.958333 0.666667
vt 1.000000 0.750000
vt 1.000000 0.666667
vt 0.666667 0.750000
vt 0.708333 0.666667
vt -0.500000 0.239583
vt -0.500000 0.229167
vt -0.250000 0.229167
vt -0.250000 0.239583
vt 0.750000 0.244792
vt 1.000000 0.234375
vt 0.750000 0.234375
vt 1.000000 0.244792
s 0
f 1/1/1 2/2/1 3/3/1
f 4/4/1 1/1/1 3/3/1
f 5/5/2 1/6/2 4/7/2
f 6/8/2 5/5/2 4/7/2
f 7/1/3 5/2/3 6/9/3
f 8/10/3 7/1/3 6/9/3
f 2/11/4 9/12/4 10/13/4
f 3/14/4 2/11/4 10/13/4
f 11/15/4 7/5/4 8/8/4
f 12/16/4 11/15/4 8/8/4
f 13/17/4 14/18/4 12/16/4
f 10/13/4 13/17/4 12/16/4
f 9/12/4 11/15/4 15/19/4
f 16/20/4 9/12/4 15/19/4
f 17/21/1 15/22/1 14/23/1
f 18/24/1 17/21/1 14/23/1
f 19/25/4 17/7/4 18/26/4
f 20/27/4 19/25/4 18/26/4
f 16/28/3 19/29/3 20/30/3
f 13/31/3 16/28/3 20/30/3
f 9/32/5 2/33/5 1/34/5
f 5/11/5 7/35/5 11/36/5
f 9/32/5 1/34/5 5/11/5
f 11/36/5 9/32/5 5/11/5
f 10/37/6 4/38/6 3/39/6
f 6/40/6 12/41/6 8/14/6
f 10/37/6 6/40/6 4/38/6
f 12/41/6 6/40/6 10/37/6
f 18/42/5 14/43/5 13/44/5
f 20/45/5 18/42/5 13/44/5
f 17/46/6 16/47/6 15/48/6
f 19/49/6 16/47/6 17/46/6
